name Run_200 02_newCOP3_v24.mot
datacolumns 19
datarows 72
range 4.66 4.6955
DataType=double
version=3
OpenSimVersion=4.3-2021-08-27-4bc7ad9
endheader
time	R_ground_force_vx	R_ground_force_vy	R_ground_force_vz	R_ground_force_px	R_ground_force_py	R_ground_force_pz	L_ground_force_vx	L_ground_force_vy	L_ground_force_vz	L_ground_force_px	L_ground_force_py	L_ground_force_pz	R_ground_torque_x	R_ground_torque_y	R_ground_torque_z	L_ground_torque_x	L_ground_torque_y	L_ground_torque_z
4.66	0	0	0	0	0	0	108.614677	879.734741	-15.088341	0.952049	0	-0.344341	0	0	0	-0	9.699007	-0
4.6605	0	0	0	0	0	0	108.914505	873.348022	-15.260432	0.951321	0	-0.344245	0	0	0	-0	9.650926999999999	-0
4.661	0	0	0	0	0	0	109.196808	866.964966	-15.427729	0.9505940000000001	0	-0.344147	0	0	0	-0	9.601842	-0
4.6615	0	0	0	0	0	0	109.461807	860.586121	-15.590274	0.949867	0	-0.344049	0	0	0	-0	9.551769999999999	-0
4.662	0	0	0	0	0	0	109.70977	854.21228	-15.748117	0.94914	0	-0.34395	0	0	0	-0	9.500731	-0
4.6625	0	0	0	0	0	0	109.940964	847.843933	-15.901319	0.948413	0	-0.34385	0	0	0	-0	9.448741	-0
4.663	0	0	0	0	0	0	110.155678	841.481812	-16.049946	0.947688	0	-0.343749	0	0	0	-0	9.395820000000001	-0
4.6635	0	0	0	0	0	0	110.354202	835.126404	-16.194075	0.946962	0	-0.343648	0	0	0	-0	9.341986	-0
4.664	0	0	0	0	0	0	110.536858	828.77832	-16.333786	0.946237	0	-0.343546	0	0	0	-0	9.287258	-0
4.6645	0	0	0	0	0	0	110.703964	822.438171	-16.469168	0.945512	0	-0.343443	0	0	0	-0	9.231655999999999	-0
4.665	0	0	0	0	0	0	110.855843	816.106384	-16.600313	0.944787	0	-0.34334	0	0	0	-0	9.175200999999999	-0
4.6655	0	0	0	0	0	0	110.992821	809.783508	-16.727318	0.944063	0	-0.343237	0	0	0	-0	9.117913	-0
4.666	0	0	0	0	0	0	111.115227	803.470154	-16.850285	0.943339	0	-0.343133	0	0	0	-0	9.059813	-0
4.6665	0	0	0	0	0	0	111.223389	797.166687	-16.969313	0.942615	0	-0.343029	0	0	0	-0	9.000921	-0
4.667	0	0	0	0	0	0	111.317635	790.8737180000001	-17.084509	0.941891	0	-0.342925	0	0	0	-0	8.941259000000001	-0
4.6675	0	0	0	0	0	0	111.398293	784.591675	-17.19598	0.941168	0	-0.342822	0	0	0	-0	8.880849	-0
4.668	0	0	0	0	0	0	111.46566	778.320984	-17.303827	0.940445	0	-0.342718	0	0	0	-0	8.819712000000001	-0
4.6685	0	0	0	0	0	0	111.520058	772.062256	-17.408155	0.939723	0	-0.342615	0	0	0	-0	8.75787	-0
4.669	0	0	0	0	0	0	111.561775	765.815796	-17.509068	0.9389999999999999	0	-0.342512	0	0	0	-0	8.695347	-0
4.6695	0	0	0	0	0	0	111.591103	759.582092	-17.606663	0.9382779999999999	0	-0.34241	0	0	0	-0	8.632164	-0
4.67	0	0	0	0	0	0	111.608307	753.3616940000001	-17.701035	0.9375559999999999	0	-0.342309	0	0	0	-0	8.568344	-0
4.6705	0	0	0	0	0	0	111.61367	747.155029	-17.792273	0.936835	0	-0.342208	0	0	0	-0	8.503912	-0
4.671	0	0	0	0	0	0	111.60743	740.962524	-17.880465	0.936113	0	-0.342109	0	0	0	-0	8.438889	-0
4.6715	0	0	0	0	0	0	111.589828	734.784668	-17.965691	0.935392	0	-0.34201	0	0	0	-0	8.3733	-0
4.672	0	0	0	0	0	0	111.561089	728.621887	-18.048019	0.934671	0	-0.341913	0	0	0	-0	8.307167	-0
4.6725	0	0	0	0	0	0	111.521431	722.474731	-18.127523	0.933951	0	-0.341817	0	0	0	-0	8.240515	-0
4.673	0	0	0	0	0	0	111.471054	716.343628	-18.204256	0.93323	0	-0.341723	0	0	0	-0	8.173368	-0
4.6735	0	0	0	0	0	0	111.410133	710.229065	-18.278271	0.93251	0	-0.34163	0	0	0	-0	8.105748999999999	-0
4.674	0	0	0	0	0	0	111.338852	704.131592	-18.349609	0.93179	0	-0.341539	0	0	0	-0	8.037682999999999	-0
4.6745	0	0	0	0	0	0	111.257355	698.051697	-18.418306	0.93107	0	-0.34145	0	0	0	-0	7.969195	-0
4.675	0	0	0	0	0	0	111.16581	691.989929	-18.484388	0.930351	0	-0.341362	0	0	0	-0	7.900308	-0
4.6755	0	0	0	0	0	0	111.064323	685.946716	-18.547873	0.929632	0	-0.341276	0	0	0	-0	7.831046	-0
4.676	0	0	0	0	0	0	110.953041	679.922729	-18.608768	0.928913	0	-0.341192	0	0	0	-0	7.761435	-0
4.6765	0	0	0	0	0	0	110.832054	673.918457	-18.667078	0.928194	0	-0.34111	0	0	0	-0	7.691498	-0
4.677	0	0	0	0	0	0	110.701462	667.934509	-18.722792	0.927475	0	-0.34103	0	0	0	-0	7.621261	-0
4.6775	0	0	0	0	0	0	110.561356	661.971436	-18.775896	0.9267570000000001	0	-0.340952	0	0	0	-0	7.550747	-0
4.678	0	0	0	0	0	0	110.411804	656.0297849999999	-18.826368	0.9260389999999999	0	-0.340875	0	0	0	-0	7.479981	-0
4.6785	0	0	0	0	0	0	110.252876	650.110229	-18.87418	0.9253209999999999	0	-0.3408	0	0	0	-0	7.408988	-0
4.679	0	0	0	0	0	0	110.084618	644.213257	-18.919296	0.924603	0	-0.340728	0	0	0	-0	7.337793	-0
4.6795	0	0	0	0	0	0	109.907074	638.3395389999999	-18.961674	0.923886	0	-0.340657	0	0	0	-0	7.266419	-0
4.68	0	0	0	0	0	0	109.720284	632.489624	-19.001268	0.923169	0	-0.340587	0	0	0	-0	7.194891	-0
4.6805	0	0	0	0	0	0	109.524277	626.664185	-19.038027	0.922453	0	-0.34052	0	0	0	-0	7.123233	-0
4.681	0	0	0	0	0	0	109.319061	620.86377	-19.071898	0.921736	0	-0.340453	0	0	0	-0	7.05147	-0
4.6815	0	0	0	0	0	0	109.10466	615.088928	-19.102823	0.9210199999999999	0	-0.340389	0	0	0	-0	6.979625	-0
4.682	0	0	0	0	0	0	108.881073	609.340271	-19.130741	0.920305	0	-0.340325	0	0	0	-0	6.907722	-0
4.6825	0	0	0	0	0	0	108.6483	603.618347	-19.155594	0.91959	0	-0.340263	0	0	0	-0	6.835786	-0
4.683	0	0	0	0	0	0	108.406342	597.923767	-19.177322	0.918876	0	-0.340202	0	0	0	-0	6.76384	-0
4.6835	0	0	0	0	0	0	108.155182	592.257019	-19.195862	0.918162	0	-0.340141	0	0	0	-0	6.691908	-0
4.684	0	0	0	0	0	0	107.894821	586.618652	-19.211157	0.917449	0	-0.340082	0	0	0	-0	6.620013	-0
4.6845	0	0	0	0	0	0	107.625244	581.009155	-19.22315	0.916737	0	-0.340023	0	0	0	-0	6.548177	-0
4.685	0	0	0	0	0	0	107.346436	575.428955	-19.231789	0.916026	0	-0.339965	0	0	0	-0	6.476425	-0
4.6855	0	0	0	0	0	0	107.05838	569.878601	-19.237022	0.915315	0	-0.339908	0	0	0	-0	6.404779	-0
4.686	0	0	0	0	0	0	106.761086	564.358459	-19.238806	0.914605	0	-0.33985	0	0	0	-0	6.333261	-0
4.6865	0	0	0	0	0	0	106.454529	558.868958	-19.237103	0.913897	0	-0.339793	0	0	0	-0	6.261894	-0
4.687	0	0	0	0	0	0	106.13871	553.4104610000001	-19.231876	0.913189	0	-0.339736	0	0	0	-0	6.190701	-0
4.6875	0	0	0	0	0	0	105.813637	547.983276	-19.223104	0.912483	0	-0.339679	0	0	0	-0	6.119701	-0
4.688	0	0	0	0	0	0	105.479309	542.5878300000001	-19.210766	0.911778	0	-0.339621	0	0	0	-0	6.048918	-0
4.6885	0	0	0	0	0	0	105.135742	537.224304	-19.194851	0.9110740000000001	0	-0.339563	0	0	0	-0	5.978373	-0
4.689	0	0	0	0	0	0	104.782959	531.893005	-19.175354	0.910371	0	-0.339505	0	0	0	-0	5.908086	-0
4.6895	0	0	0	0	0	0	104.42099	526.5941769999999	-19.152287	0.90967	0	-0.339447	0	0	0	-0	5.838078	-0
4.69	0	0	0	0	0	0	104.049873	521.327942	-19.12566	0.908971	0	-0.339387	0	0	0	-0	5.768369	-0
4.6905	0	0	0	0	0	0	103.669655	516.094482	-19.095499	0.908273	0	-0.339327	0	0	0	-0	5.698979	-0
4.691	0	0	0	0	0	0	103.280396	510.893921	-19.061838	0.907577	0	-0.339267	0	0	0	-0	5.629929	-0
4.6915	0	0	0	0	0	0	102.882164	505.72641	-19.024723	0.906882	0	-0.339205	0	0	0	-0	5.561236	-0
4.692	0	0	0	0	0	0	102.475044	500.591949	-18.984205	0.9061900000000001	0	-0.339143	0	0	0	-0	5.49292	-0
4.6925	0	0	0	0	0	0	102.059128	495.49057	-18.940346	0.9054990000000001	0	-0.33908	0	0	0	-0	5.425	-0
4.693	0	0	0	0	0	0	101.634514	490.422272	-18.893219	0.904811	0	-0.339015	0	0	0	-0	5.357492	-0
4.6935	0	0	0	0	0	0	101.201332	485.387024	-18.842905	0.904124	0	-0.33895	0	0	0	-0	5.290416	-0
4.694	0	0	0	0	0	0	100.759697	480.384735	-18.789492	0.90344	0	-0.338884	0	0	0	-0	5.223788	-0
4.6945	0	0	0	0	0	0	100.309761	475.415344	-18.733078	0.9027579999999999	0	-0.338817	0	0	0	-0	5.157625	-0
4.695	0	0	0	0	0	0	99.851669	470.478699	-18.673769	0.902078	0	-0.338749	0	0	0	-0	5.091942	-0
4.6955	0	0	0	0	0	0	99.385605	465.574615	-18.611679	0.9014	0	-0.33868	0	0	0	-0	5.026757	-0
